{
  "accessors": [
    {
      "bufferView": 2,
      "componentType": 5126,
      "count": 54883,
      "max": [
        1.0181282758712769,
        1.3352223634719849,
        2.189178943634033
      ],
      "min": [
        -1.0181282758712769,
        -1.3221795558929443,
        -1.1708085536956787
      ],
      "type": "VEC3"
    },
    {
      "bufferView": 2,
      "byteOffset": 658596,
      "componentType": 5126,
      "count": 54883,
      "max": [
        0.9999862909317017,
        0.9997632503509521,
        0.9997648596763611
      ],
      "min": [
        -0.9999864101409912,
        -0.9997853636741638,
        -0.9998031854629517
      ],
      "type": "VEC3"
    },
    {
      "bufferView": 3,
      "componentType": 5126,
      "count": 54883,
      "max": [
        1.0,
        0.9999850392341614,
        0.9998676180839539,
        1.0
      ],
      "min": [
        -0.999977171421051,
        -0.9999868273735046,
        -0.9999909400939941,
        -1.0
      ],
      "type": "VEC4"
    },
    {
      "bufferView": 1,
      "componentType": 5126,
      "count": 54883,
      "max": [
        0.9980468153953552,
        0.9979763627052307
      ],
      "min": [
        0.0019531159196048975,
        0.001953125
      ],
      "type": "VEC2"
    },
    {
      "bufferView": 0,
      "componentType": 5125,
      "count": 296580,
      "type": "SCALAR"
    },
    {
      "bufferView": 2,
      "byteOffset": 1317192,
      "componentType": 5126,
      "count": 18107,
      "max": [
        2.348931312561035,
        0.9190477132797241,
        2.633289337158203
      ],
      "min": [
        -2.348931312561035,
        -4.247323989868164,
        -1.1253001689910889
      ],
      "type": "VEC3"
    },
    {
      "bufferView": 2,
      "byteOffset": 1534476,
      "componentType": 5126,
      "count": 18107,
      "max": [
        0.9998781085014343,
        0.9999164342880249,
        0.9999900460243225
      ],
      "min": [
        -0.9998781085014343,
        -0.9997016787528992,
        -0.9995432496070862
      ],
      "type": "VEC3"
    },
    {
      "bufferView": 3,
      "byteOffset": 878128,
      "componentType": 5126,
      "count": 18107,
      "max": [
        0.9997584223747253,
        0.9998907446861267,
        0.9999779462814331,
        1.0
      ],
      "min": [
        -1.0,
        -0.9998846054077148,
        -0.9999106526374817,
        -1.0
      ],
      "type": "VEC4"
    },
    {
      "bufferView": 1,
      "byteOffset": 439064,
      "componentType": 5126,
      "count": 18107,
      "max": [
        0.9612373113632202,
        0.998046875
      ],
      "min": [
        0.001953128492459655,
        0.0019531241850927472
      ],
      "type": "VEC2"
    },
    {
      "bufferView": 0,
      "byteOffset": 1186320,
      "componentType": 5125,
      "count": 98616,
      "type": "SCALAR"
    },
    {
      "bufferView": 2,
      "byteOffset": 1751760,
      "componentType": 5126,
      "count": 2666,
      "max": [
        2.4079270362854004,
        -0.6711757183074951,
        2.9784162044525146
      ],
      "min": [
        -2.411421775817871,
        -4.10191535949707,
        -0.7994750142097473
      ],
      "type": "VEC3"
    },
    {
      "bufferView": 2,
      "byteOffset": 1783752,
      "componentType": 5126,
      "count": 2666,
      "max": [
        0.9920401573181152,
        0.9985789060592651,
        0.9976173639297485
      ],
      "min": [
        -0.9932860732078552,
        -0.9991645216941833,
        -0.9991607666015625
      ],
      "type": "VEC3"
    },
    {
      "bufferView": 3,
      "byteOffset": 1167840,
      "componentType": 5126,
      "count": 2666,
      "max": [
        0.9999510645866394,
        0.9990552663803101,
        0.9998234510421753,
        1.0
      ],
      "min": [
        -0.9999870657920837,
        -0.9999966621398926,
        -0.9972244501113892,
        -1.0
      ],
      "type": "VEC4"
    },
    {
      "bufferView": 1,
      "byteOffset": 583920,
      "componentType": 5126,
      "count": 2666,
      "max": [
        0.9713777899742126,
        0.998046875
      ],
      "min": [
        0.0019531247671693563,
        0.0019531308207660913
      ],
      "type": "VEC2"
    },
    {
      "bufferView": 0,
      "byteOffset": 1580784,
      "componentType": 5125,
      "count": 13668,
      "type": "SCALAR"
    }
  ],
  "asset": {
    "extras": {
      "author": "OSCAR CREATIVO (https://sketchfab.com/oscar_creativo)",
      "license": "CC-BY-4.0 (http://creativecommons.org/licenses/by/4.0/)",
      "source": "https://sketchfab.com/3d-models/bot-machine-z20-by-osca-creativo-6d036318f8fe423999121f248de670b7",
      "title": "BOT MACHINE Z20 By Osca creativo"
    },
    "generator": "Sketchfab-12.66.0",
    "version": "2.0"
  },
  "bufferViews": [
    {
      "buffer": 0,
      "byteLength": 1635456,
      "name": "floatBufferViews",
      "target": 34963
    },
    {
      "buffer": 0,
      "byteLength": 605248,
      "byteOffset": 1635456,
      "byteStride": 8,
      "name": "floatBufferViews",
      "target": 34962
    },
    {
      "buffer": 0,
      "byteLength": 1815744,
      "byteOffset": 2240704,
      "byteStride": 12,
      "name": "floatBufferViews",
      "target": 34962
    },
    {
      "buffer": 0,
      "byteLength": 1210496,
      "byteOffset": 4056448,
      "byteStride": 16,
      "name": "floatBufferViews",
      "target": 34962
    }
  ],
  "buffers": [
    {
      "byteLength": 5266944,
      "uri": "scene.bin"
    }
  ],
  "images": [
    {
      "uri": "textures/CABEZA_1_baseColor.png"
    },
    {
      "uri": "textures/CABEZA_1_metallicRoughness.png"
    },
    {
      "uri": "textures/CABEZA_1_emissive.png"
    },
    {
      "uri": "textures/CABEZA_1_normal.png"
    },
    {
      "uri": "textures/PECHO_1_baseColor.png"
    },
    {
      "uri": "textures/PECHO_1_metallicRoughness.png"
    },
    {
      "uri": "textures/PECHO_1_emissive.png"
    },
    {
      "uri": "textures/PECHO_1_normal.png"
    },
    {
      "uri": "textures/HOMBRO_1_baseColor.png"
    },
    {
      "uri": "textures/HOMBRO_1_metallicRoughness.png"
    },
    {
      "uri": "textures/HOMBRO_1_emissive.png"
    },
    {
      "uri": "textures/HOMBRO_1_normal.png"
    }
  ],
  "materials": [
    {
      "doubleSided": true,
      "emissiveFactor": [
        1.0,
        1.0,
        1.0
      ],
      "emissiveTexture": {
        "index": 2
      },
      "name": "CABEZA_1",
      "normalTexture": {
        "index": 3
      },
      "occlusionTexture": {
        "index": 1
      },
      "pbrMetallicRoughness": {
        "baseColorTexture": {
          "index": 0
        },
        "metallicRoughnessTexture": {
          "index": 1
        }
      }
    },
    {
      "doubleSided": true,
      "emissiveFactor": [
        1.0,
        1.0,
        1.0
      ],
      "emissiveTexture": {
        "index": 6
      },
      "name": "PECHO_1",
      "normalTexture": {
        "index": 7
      },
      "occlusionTexture": {
        "index": 5
      },
      "pbrMetallicRoughness": {
        "baseColorTexture": {
          "index": 4
        },
        "metallicRoughnessTexture": {
          "index": 5
        }
      }
    },
    {
      "doubleSided": true,
      "emissiveFactor": [
        1.0,
        1.0,
        1.0
      ],
      "emissiveTexture": {
        "index": 10
      },
      "name": "HOMBRO_1",
      "normalTexture": {
        "index": 11
      },
      "occlusionTexture": {
        "index": 9
      },
      "pbrMetallicRoughness": {
        "baseColorTexture": {
          "index": 8
        },
        "metallicRoughnessTexture": {
          "index": 9
        }
      }
    }
  ],
  "meshes": [
    {
      "name": "CABEZA_1_CABEZA_1_0",
      "primitives": [
        {
          "attributes": {
            "NORMAL": 1,
            "POSITION": 0,
            "TANGENT": 2,
            "TEXCOORD_0": 3
          },
          "indices": 4,
          "material": 0,
          "mode": 4
        }
      ]
    },
    {
      "name": "PECHO_1_PECHO_1_0",
      "primitives": [
        {
          "attributes": {
            "NORMAL": 6,
            "POSITION": 5,
            "TANGENT": 7,
            "TEXCOORD_0": 8
          },
          "indices": 9,
          "material": 1,
          "mode": 4
        }
      ]
    },
    {
      "name": "HOMBRO_1_HOMBRO_1_0",
      "primitives": [
        {
          "attributes": {
            "NORMAL": 11,
            "POSITION": 10,
            "TANGENT": 12,
            "TEXCOORD_0": 13
          },
          "indices": 14,
          "material": 2,
          "mode": 4
        }
      ]
    }
  ],
  "nodes": [
    {
      "children": [
        1
      ],
      "matrix": [
        -1.0,
        2.832769343193999e-16,
        6.290011496532519e-32,
        0.0,
        0.0,
        2.220446049250313e-16,
        -1.0,
        0.0,
        -2.832769343193999e-16,
        -1.0,
        -2.220446049250313e-16,
        0.0,
        -0.0035026073455810547,
        2.912099838256836,
        5.355937556254711e-16,
        1.0
      ],
      "name": "Sketchfab_model"
    },
    {
      "children": [
        2
      ],
      "matrix": [
        1.0,
        0.0,
        0.0,
        0.0,
        0.0,
        -1.0,
        0.0,
        0.0,
        0.0,
        0.0,
        -1.0,
        0.0,
        0.0,
        0.0,
        0.0,
        1.0
      ],
      "name": "f74604effdf94f93b8ba90d4cc1502b9.fbx"
    },
    {
      "children": [
        3,
        5,
        7
      ],
      "name": "RootNode"
    },
    {
      "children": [
        4
      ],
      "matrix": [
        1.0,
        0.0,
        0.0,
        0.0,
        0.0,
        2.220446049250313e-16,
        1.0,
        0.0,
        0.0,
        -1.0,
        2.220446049250313e-16,
        0.0,
        0.0,
        0.0,
        0.0,
        1.0
      ],
      "name": "CABEZA_1"
    },
    {
      "mesh": 0,
      "name": "CABEZA_1_CABEZA_1_0"
    },
    {
      "children": [
        6
      ],
      "matrix": [
        1.0,
        0.0,
        0.0,
        0.0,
        0.0,
        2.220446049250313e-16,
        1.0,
        0.0,
        0.0,
        -1.0,
        2.220446049250313e-16,
        0.0,
        0.0,
        0.0,
        0.0,
        1.0
      ],
      "name": "PECHO_1"
    },
    {
      "mesh": 1,
      "name": "PECHO_1_PECHO_1_0"
    },
    {
      "children": [
        8
      ],
      "matrix": [
        1.0,
        0.0,
        0.0,
        0.0,
        0.0,
        2.220446049250313e-16,
        1.0,
        0.0,
        0.0,
        -1.0,
        2.220446049250313e-16,
        0.0,
        0.0,
        0.0,
        0.0,
        1.0
      ],
      "name": "HOMBRO_1"
    },
    {
      "mesh": 2,
      "name": "HOMBRO_1_HOMBRO_1_0"
    }
  ],
  "samplers": [
    {
      "magFilter": 9729,
      "minFilter": 9987,
      "wrapS": 10497,
      "wrapT": 10497
    }
  ],
  "scene": 0,
  "scenes": [
    {
      "name": "Sketchfab_Scene",
      "nodes": [
        0
      ]
    }
  ],
  "textures": [
    {
      "sampler": 0,
      "source": 0
    },
    {
      "sampler": 0,
      "source": 1
    },
    {
      "sampler": 0,
      "source": 2
    },
    {
      "sampler": 0,
      "source": 3
    },
    {
      "sampler": 0,
      "source": 4
    },
    {
      "sampler": 0,
      "source": 5
    },
    {
      "sampler": 0,
      "source": 6
    },
    {
      "sampler": 0,
      "source": 7
    },
    {
      "sampler": 0,
      "source": 8
    },
    {
      "sampler": 0,
      "source": 9
    },
    {
      "sampler": 0,
      "source": 10
    },
    {
      "sampler": 0,
      "source": 11
    }
  ]
}
